# xmcd
#
# Track frame offsets: 
#        150
#        20406
#        38305
#        58858
#        78632
#        98706
#        117329
#        138373
#        159421
#        174530
#        189897
#        210479
#
# Disc length: 3048 seconds
#
# Revision: 2
# Processed by: cddbd v1.5.2PL0 Copyright (c) Steve Scherf et al.
# Submitted via: ExactAudioCopyFreeDBPlugin 1.0
#
DISCID=920be60c
DTITLE=Centinex - Hellbrigade
DYEAR=2000
DGENRE=Death Metal
TTITLE0=Towards Devastation
TTITLE1=One With Eternity
TTITLE2=The Eyes Of The Dead
TTITLE3=Emperor Of Death
TTITLE4=Last Redemption
TTITLE5=Bloodconqueror
TTITLE6=Neverending Hell
TTITLE7=Nightbreeder
TTITLE8=Hellbrigade
TTITLE9=Apocalyptic Armageddon (bonus track)
TTITLE10=Seeds Of Evil (bonus track)
TTITLE11=Everlasting Bloodshed (bonus track)
EXTD=YEAR: 2000 ID3G: 22
EXTT0=
EXTT1=
EXTT2=
EXTT3=
EXTT4=
EXTT5=
EXTT6=
EXTT7=
EXTT8=
EXTT9=
EXTT10=
EXTT11=
PLAYORDER=
